PathFileType  4	(X/Y/Z) C:\Users\antoi\Documents\MyRepositories\mobilecap\ResultsAnalysis
DataRate	CameraRate	NumFrames	NumMarkers	Units	OrigDataRate	OrigDataStartFrame	OrigNumFrames
100.0	100.0	5	51	mm	100.0	74	295
Frame#	Time	r_knee			r_shank_antsup			r_ankle			r_calc			r_5meta			r_toe			L_knee			L_shank_antsup			L_ankle			L_calc			L_5meta			L_toe			r_sh2			r_sh3			r_sh4			L_sh2			L_sh3			r_thigh1			r_thigh2			r_thigh3			r_thigh4			r_thigh5			L_thigh1			L_thigh2			L_thigh3			L_thigh4			r.ASIS			r.PSIS			L.ASIS			L.PSIS			C7			R_Shoulder			L_Shoulder			R_Sternum			L_Sternum			R_humerus			R_elbow_med			R_elbow_lat			R_forearm			R_wrist_radius			R_wrist_ulna			L_humerus			L_elbow_med			L_elbow_lat			L_forearm			L_wrist_radius			L_wrist_ulna			R_HJC			L_HJC			R_HJC_reg			L_HJC_reg			
		X1	Y1	Z1	X2	Y2	Z2	X3	Y3	Z3	X4	Y4	Z4	X5	Y5	Z5	X6	Y6	Z6	X7	Y7	Z7	X8	Y8	Z8	X9	Y9	Z9	X10	Y10	Z10	X11	Y11	Z11	X12	Y12	Z12	X13	Y13	Z13	X14	Y14	Z14	X15	Y15	Z15	X16	Y16	Z16	X17	Y17	Z17	X18	Y18	Z18	X19	Y19	Z19	X20	Y20	Z20	X21	Y21	Z21	X22	Y22	Z22	X23	Y23	Z23	X24	Y24	Z24	X25	Y25	Z25	X26	Y26	Z26	X27	Y27	Z27	X28	Y28	Z28	X29	Y29	Z29	X30	Y30	Z30	X31	Y31	Z31	X32	Y32	Z32	X33	Y33	Z33	X34	Y34	Z34	X35	Y35	Z35	X36	Y36	Z36	X37	Y37	Z37	X38	Y38	Z38	X39	Y39	Z39	X40	Y40	Z40	X41	Y41	Z41	X42	Y42	Z42	X43	Y43	Z43	X44	Y44	Z44	X45	Y45	Z45	X46	Y46	Z46	X47	Y47	Z47	X48	Y48	Z48	X49	Y49	Z49	X50	Y50	Z50	X51	Y51	Z51	

74	0.73000000	-862.27284	752.71397	-422.18677	-892.58560	629.03579	-440.01960	-1187.29021	459.57166	-424.70043	-1270.30126	453.94609	-474.37301	-1103.05286	351.21544	-377.17173	-1054.52285	358.66105	-449.86944	-912.40870	751.44573	-778.00618	-914.01409	634.43880	-747.80974	-1206.12783	439.32165	-727.36414	-1281.26323	434.70379	-673.85650	-1099.49267	342.49041	-757.63956	-1059.22881	356.78265	-689.02981	-974.04997	546.86572	-460.98709	-939.42518	659.22560	-386.81823	-1014.29521	569.25364	-390.31314	-976.08877	680.26309	-797.15690	-1036.07147	574.63956	-793.87564	-872.72935	1006.00958	-436.19909	-823.25217	905.85811	-451.30291	-833.03776	866.67820	-397.60650	-940.49103	958.99643	-357.18114	-885.75035	855.60017	-380.42648	-944.30297	1012.32687	-790.77458	-877.22090	892.31499	-787.61409	-1041.42439	958.35267	-813.68032	-973.82540	839.10683	-809.47448	-968.39156	1178.49821	-444.84945	-1155.29795	1281.25799	-509.45443	-992.09168	1184.77602	-708.71506	-1168.73508	1283.99250	-609.16812	-897.11908	1712.02640	-583.33505	-838.64371	1628.92175	-405.82731	-838.31886	1646.13766	-745.61429	-781.90398	1586.86867	-562.08094	-788.07918	1585.89974	-610.19429	-876.85933	1494.37767	-304.56116	-1003.55161	1294.74421	-271.68137	-981.58284	1345.23257	-202.17785	-819.12660	1274.89464	-218.25089	-719.37535	1202.02827	-225.49492	-730.04989	1182.61491	-188.09080	-820.17512	1519.10699	-861.08880	-866.32421	1297.06937	-919.06759	-825.97650	1346.92026	-971.49215	-681.90900	1283.85687	-892.38115	-581.83836	1218.71273	-879.15610	-583.58198	1203.80033	-925.01023	-1075.02348	1131.62852	-472.18363	-1095.42609	1125.61043	-684.51162	-1063.70265	1130.09523	-471.30795	-1087.05322	1134.84751	-644.57763	
75	0.74000000	-859.49839	750.63591	-422.43302	-890.65916	626.68052	-440.12647	-1186.38305	459.32762	-425.36307	-1269.60506	453.97000	-475.30450	-1102.84125	351.24399	-377.41858	-1054.01930	358.34288	-450.08560	-909.81838	748.79989	-777.42573	-912.44262	631.62668	-746.96955	-1205.90454	438.68235	-726.84577	-1281.20462	434.09767	-673.39184	-1099.46541	342.20592	-757.58989	-1059.05683	356.47103	-689.03645	-972.42861	544.94597	-461.29890	-937.60072	657.13460	-387.16230	-1012.84738	567.75811	-390.64978	-974.08042	678.06546	-796.76885	-1034.86232	572.63338	-792.94861	-866.27268	1003.83363	-436.38606	-818.59278	903.07753	-450.95468	-829.23004	864.05158	-397.61336	-935.22758	957.70515	-358.11055	-881.99834	853.93874	-380.48376	-938.76984	1010.38325	-791.32170	-873.15177	889.11785	-787.69468	-1036.57340	957.31795	-813.16741	-970.67796	837.01189	-808.10022	-960.82102	1180.10949	-445.75339	-1148.70522	1280.96884	-510.23318	-985.87359	1185.83680	-711.88450	-1162.27227	1283.65516	-609.63676	-897.81195	1715.42774	-583.23383	-838.11458	1635.28421	-405.77705	-836.11732	1652.70056	-744.16924	-779.45050	1592.07133	-562.49445	-785.65304	1591.62183	-609.60867	-872.64013	1503.60245	-300.92286	-993.13201	1301.74065	-260.17238	-972.72417	1356.14306	-192.97995	-806.01794	1299.18958	-212.34691	-700.44679	1235.72996	-221.50289	-708.46850	1216.02889	-183.36447	-810.87959	1530.15956	-861.95285	-845.73954	1307.68140	-927.57954	-806.86786	1362.10749	-978.32130	-662.03901	1310.15666	-892.11569	-557.32947	1254.20602	-874.58537	-555.74031	1239.28412	-919.94707	-1066.95158	1132.13069	-473.47766	-1088.51340	1125.90639	-685.68614	-1056.29750	1129.80971	-472.49041	-1080.15328	1134.54108	-647.26847	
76	0.75000000	-857.84087	749.17274	-422.21044	-889.67957	624.85668	-440.01374	-1186.05650	458.90581	-426.06030	-1269.29444	453.60310	-476.37643	-1102.86675	351.20998	-377.61226	-1053.78790	358.08405	-450.21190	-908.71720	746.47006	-776.75501	-911.87535	629.39031	-746.50591	-1206.34242	437.66847	-725.92216	-1281.64335	432.88128	-672.61164	-1099.71162	341.99203	-757.63193	-1059.16327	356.19646	-688.99269	-971.51815	543.43819	-461.48512	-936.80386	655.52018	-387.28231	-1012.30684	566.46220	-390.94755	-973.58769	676.04661	-795.99170	-1034.76379	570.80979	-792.04561	-860.16277	1002.54470	-436.18620	-814.37315	900.86993	-450.49678	-826.38624	861.94517	-397.44784	-930.51337	957.35014	-359.22307	-879.04464	852.95502	-380.45252	-933.46614	1009.06536	-792.14397	-869.70706	886.04590	-787.72514	-1031.94759	957.33728	-812.99662	-968.39019	835.64910	-806.84892	-952.73378	1183.32417	-446.43922	-1141.49166	1282.12949	-511.16119	-978.61736	1188.10700	-713.73894	-1155.16225	1284.57047	-610.75981	-898.27702	1720.42898	-583.11525	-837.39125	1643.47588	-405.84699	-833.58343	1661.01837	-742.82026	-777.03374	1599.42571	-562.60585	-782.94130	1599.10909	-608.94669	-867.98577	1514.82832	-297.33750	-981.77442	1310.99725	-248.57288	-963.52102	1369.46999	-183.93999	-793.70353	1326.21167	-206.47554	-683.32956	1272.28394	-217.63177	-688.67598	1252.89572	-178.65206	-801.60182	1543.61508	-862.62615	-825.21578	1321.54699	-938.22972	-787.61868	1380.65102	-985.25560	-643.63311	1339.42834	-891.66740	-535.20990	1293.05130	-869.56215	-530.23607	1278.75324	-914.46215	-1058.41842	1134.24334	-474.37047	-1080.46011	1127.30393	-686.50705	-1048.09896	1131.49366	-473.23280	-1072.19632	1135.78913	-648.80865	
77	0.76000000	-857.40860	748.37548	-421.57499	-889.66755	623.71085	-439.65061	-1186.29078	458.23963	-426.94240	-1269.40360	452.89590	-477.48386	-1103.18948	351.07174	-377.88621	-1053.73667	357.85614	-450.29092	-908.90176	744.84697	-776.18148	-912.23902	627.96230	-746.12720	-1207.14462	436.62123	-724.93966	-1282.36494	431.37147	-671.29829	-1100.11330	341.78201	-757.54656	-1059.41733	355.95809	-688.82779	-971.33297	542.33173	-461.49053	-937.02271	654.45308	-387.06174	-1012.70643	565.38055	-391.28096	-974.47624	674.47490	-794.67874	-1035.58353	569.47822	-791.08929	-854.23928	1002.16707	-435.63623	-810.59971	899.29888	-449.58446	-824.20229	860.55079	-396.85373	-926.31615	958.48605	-359.56904	-877.07258	852.82837	-380.26931	-927.91827	1008.04604	-792.77407	-866.83077	883.38544	-787.83918	-1027.48290	958.48495	-812.84792	-966.82633	835.28458	-805.78329	-943.72390	1187.78579	-447.40073	-1133.45075	1284.90978	-512.11976	-970.02252	1191.75481	-714.16947	-1147.14194	1287.19938	-611.64196	-898.41627	1727.28177	-583.07051	-836.38101	1653.68750	-405.92491	-830.75767	1671.35753	-741.47003	-774.78560	1609.58884	-561.72089	-779.94631	1608.50273	-608.33493	-863.03208	1528.24001	-293.89999	-969.70318	1322.66188	-237.05844	-954.11807	1385.19008	-175.27209	-782.38444	1355.57003	-200.86683	-668.31349	1311.02951	-214.04966	-670.94915	1292.61882	-174.04435	-792.22451	1559.42787	-863.04645	-805.00987	1338.74055	-949.56904	-768.53851	1402.09999	-991.29335	-626.74695	1371.27998	-891.15953	-516.00012	1334.35210	-864.18655	-507.50234	1321.55814	-908.87917	-1049.15335	1137.84396	-474.93909	-1071.30773	1130.22822	-687.04097	-1038.75768	1134.98347	-474.06906	-1062.86309	1138.99781	-649.31792	
78	0.77000000	-858.29724	748.51736	-420.76018	-890.56409	623.48816	-438.83618	-1186.90812	457.43841	-427.97749	-1269.78809	452.03198	-478.71956	-1103.78994	350.81569	-378.20957	-1053.90393	357.57657	-450.35118	-910.05451	744.34799	-775.66796	-913.41693	627.64050	-745.66556	-1207.97547	436.01762	-724.02763	-1282.97095	430.25550	-669.78726	-1100.51028	341.59927	-757.25993	-1059.65540	355.76722	-688.59572	-971.68786	541.80845	-461.15096	-938.43073	654.15277	-386.49130	-1013.89740	564.72917	-391.65524	-976.18755	674.06850	-793.46997	-1036.96111	569.08204	-790.25528	-848.06347	1002.39577	-434.87477	-807.39678	898.36424	-448.34774	-822.59045	859.77847	-395.94465	-922.39526	961.07406	-359.23973	-876.07848	853.65801	-379.92588	-921.85220	1007.70224	-793.29951	-864.38509	881.58204	-788.17269	-1023.04479	961.12666	-812.61352	-965.87712	836.26294	-804.67897	-933.78494	1193.82190	-448.60954	-1124.50168	1289.36871	-513.32910	-960.34292	1197.10844	-714.82431	-1138.07408	1292.51703	-611.11008	-898.23654	1736.03583	-583.03655	-834.98769	1666.12644	-405.87987	-827.68010	1683.89093	-740.11120	-772.43877	1622.30831	-560.40954	-776.67749	1620.00274	-607.73055	-857.84763	1543.98884	-290.60273	-957.07977	1337.10657	-225.79602	-944.61624	1403.26496	-167.09328	-772.18203	1386.69510	-195.59718	-655.43615	1351.50544	-210.64977	-655.52701	1334.41113	-169.80836	-782.86485	1577.51815	-863.15915	-784.65143	1359.16923	-958.46106	-750.02958	1426.26306	-996.12208	-611.38976	1405.21962	-890.52841	-499.66272	1377.38478	-859.01111	-487.97602	1366.54439	-903.29481	-1039.01684	1143.14127	-475.56566	-1061.55360	1135.38466	-687.62361	-1028.23836	1138.76088	-475.74790	-1052.50590	1144.42732	-650.55589	
